<svg xmlns="http://www.w3.org/2000/svg" width="245.272" height="46.2" viewBox="0 0 245.272 46.2">
  <g id="Group_395" data-name="Group 395" transform="translate(-320 -2226)">
    <g id="Haltech_logo_WHITE_-_for_black_bg" data-name="Haltech logo WHITE - for black bg" transform="translate(320 2226)">
      <g id="Group_352" data-name="Group 352" transform="translate(0 0)">
        <path id="Path_271" data-name="Path 271" d="M456.8,287.442h0a7.908,7.908,0,0,1-7.04-3.975,8.386,8.386,0,0,1,.264-8.353l11.158-21.347a9.982,9.982,0,0,1-.975-1.352c-.022-.037-.044-.08-.066-.124a7.6,7.6,0,0,1,.344-7.394,7.99,7.99,0,0,1,6.959-3.648h37.676a8.133,8.133,0,0,1,7.34,4,8.036,8.036,0,0,1,.7,6.209h23.568a7.54,7.54,0,0,1,.657-6.542,8.011,8.011,0,0,1,7.006-3.67l30.722.129a7.933,7.933,0,0,1,7.631,4.534,7.7,7.7,0,0,1,.309,5.67l64.606-.113a7.552,7.552,0,0,1,.676-6.6,8,8,0,0,1,6.969-3.628h14.851a8.129,8.129,0,0,1,7.343,4.008,8.035,8.035,0,0,1,.7,6.2h5.069a11.375,11.375,0,0,1,9.013,5.067c2.953,4.347,1.411,9.517.87,10.563l-7.79,14.715c-2.735,5.24-7.211,5.647-8.518,5.647Zm10.644-44.263a6.1,6.1,0,0,0-5.325,2.746,5.684,5.684,0,0,0-.243,5.521,8.671,8.671,0,0,0,1.169,1.506.964.964,0,0,1,.158,1.114L451.72,276.044a6.5,6.5,0,0,0-.271,6.479,6,6,0,0,0,5.356,2.989l220.047,0c1.033,0,4.575-.333,6.81-4.615l7.788-14.711c.336-.652,1.647-5.045-.758-8.586a9.392,9.392,0,0,0-7.421-4.219h-6.455a.965.965,0,0,1-.871-1.38,6.346,6.346,0,0,0-.112-5.785,6.239,6.239,0,0,0-5.669-3.038H655.312a6.113,6.113,0,0,0-5.337,2.728,5.688,5.688,0,0,0-.246,5.515s.106.19.3.464a.965.965,0,0,1-.79,1.517l-67.642.118h0a.964.964,0,0,1-.846-1.428,5.906,5.906,0,0,0,.254-5.363,6.064,6.064,0,0,0-5.883-3.415l-30.723-.129a6.117,6.117,0,0,0-5.363,2.76,5.69,5.69,0,0,0-.192,5.551c.04.078.117.229.237.421a.965.965,0,0,1-.817,1.479H511.775a.965.965,0,0,1-.871-1.381,6.341,6.341,0,0,0-.113-5.8,6.24,6.24,0,0,0-5.666-3.034Z" transform="translate(-448.775 -241.242)" fill="#fff"/>
      </g>
      <g id="Group_353" data-name="Group 353" transform="translate(7.082 7.006)">
        <path id="Path_272" data-name="Path 272" d="M579.285,282.586c-.287.541-.589,1.594.931,1.594h9.018s1.223,0,2.315-1.892l15.233-28.609s.9-1.535-1.1-1.535H590.866s-1.411-.03-.994.819a2.664,2.664,0,0,0,.7.573l3.206,1.773Z" transform="translate(-502.304 -252.135)" fill="#fff"/>
        <path id="Path_273" data-name="Path 273" d="M509.051,252.14h-8.33a2.441,2.441,0,0,0-2.15,1.03l-4.908,9.181H482.677l4.518-8.484s1-1.726-.995-1.726H471.382s-1.369-.017-.955.847a2.125,2.125,0,0,0,.656.544c.4.23,3.246,1.7,3.246,1.7L460.123,282.4s-1.083,1.772.609,1.772h9.018s1.261.13,2.316-1.892l7.514-14.1h10.972l-7.775,14.559s-.885,1.434.806,1.434H492.6s1.261.13,2.315-1.892l15.235-28.609s.894-1.535-1.1-1.535Z" transform="translate(-459.781 -252.132)" fill="#fff"/>
        <path id="Path_274" data-name="Path 274" d="M794.48,264.283a4.134,4.134,0,0,0-3.146-1.949H774.7l4.613-8.668s.9-1.536-1.094-1.536H763.4s-1.411-.043-1,.822a1.663,1.663,0,0,0,.7.57c.435.169,3.455,1.712,3.455,1.712L752.141,282.4s-.972,1.777.609,1.771h9.018s1.26.13,2.315-1.891l7.508-14.1h11.176L775.235,282.4s-1.082,1.771.61,1.771h9.016s1.261.13,2.315-1.891l7.514-14.1s.844-2.347-.21-3.9Z" transform="translate(-563.91 -252.13)" fill="#fff"/>
        <path id="Path_275" data-name="Path 275" d="M660.087,271.27H645.294l1.521-2.861h14.793Zm6.172-8.717H627.334l4.275-7.975.757-.776s1.239-1.46-.907-1.46l-8.538,0a2.451,2.451,0,0,0-2.149,1.032L607.68,277.885c-3.1,6.275,3.036,6.507,3.036,6.507h11.818a2.16,2.16,0,0,0,1.692-1.086l1.886-3.558c.5-.946-.278-1.151-.715-1.149-.5,0-6.58-.015-6.58-.015l4.3-8.006a.647.647,0,0,0-.066-.75l-1.8-1.45,14.555.008-5.135,9.5c-3.1,6.275,3.036,6.507,3.036,6.507h26.976a2.164,2.164,0,0,0,1.693-1.086s1.684-3.211,1.849-3.59c.39-.9-.658-1.117-.658-1.117l-22.158-.023,1.134-2.132,19.089-.058c4.413,0,5.744-2.933,5.744-2.933l3.221-5.959C671.86,264.973,670.337,262.553,666.26,262.553Z" transform="translate(-512.199 -252.205)" fill="#fff"/>
        <path id="Path_276" data-name="Path 276" d="M731.2,268.032l-14.694-.023s-4.8-.262-6.8,3.288l-6.383,12.036c-3.1,6.271,3.037,6.506,3.037,6.506h22.333a2.167,2.167,0,0,0,1.695-1.085s1.732-3.185,1.906-3.565c.221-.48-.03-1.134-.887-1.134H714.348l5.4-10.21h17.424a2.247,2.247,0,0,0,1.724-1.075l2.013-3.786c.226-.424-.158-.975-.8-.975S731.2,268.032,731.2,268.032Z" transform="translate(-546.299 -257.79)" fill="#fff"/>
        <path id="Path_277" data-name="Path 277" d="M546.7,284.035H532.572l1.477-2.872h14.174Zm-13.851-16.024a2.2,2.2,0,0,0-2.138,1.075l-1.782,3.371s-.835,1.388.613,1.388h22.59l-1.548,2.883H531.153s-4.111-.116-6.058,3.1l-2.291,4.226c-2.728,5.642,2.682,5.78,2.682,5.78H552.9a2.442,2.442,0,0,0,2.191-1.046l7.59-14.391c2.713-5.209-1.463-6.389-3.033-6.389Z" transform="translate(-481.977 -257.792)" fill="#fff"/>
      </g>
    </g>
  </g>
</svg>
